<?xml version="1.0" encoding="UTF-8" standalone="no"?>
<svg
   xmlns:dc="http://purl.org/dc/elements/1.1/"
   xmlns:cc="http://creativecommons.org/ns#"
   xmlns:rdf="http://www.w3.org/1999/02/22-rdf-syntax-ns#"
   xmlns:svg="http://www.w3.org/2000/svg"
   xmlns="http://www.w3.org/2000/svg"
   version="1.1"
   width="82"
   height="82">
  <path
     d="M 36.376777,81.787907 C 20.434947,80.138307 6.1240873,68.211657 1.8652373,52.687897 0.48764728,47.540657 -0.37768272,42.233307 0.16291728,36.897947 c 0.79341,-3.36975 1.25187002,-7.04242 2.55747002,-10.36249 4.74539,-13.2007 16.8547497,-23.3377402 30.6195497,-25.82803017 5.11202,-0.95272 10.479,-0.93106 15.59776,-0.008 15.42642,2.85704997 28.61644,15.35783017 31.9032,30.79421017 0.69067,3.59656 1.50131,6.67899 1.00715,10.14074 0.20555,16.81465 -11.37307,32.77467 -27.21925,38.11543 -5.82354,2.12696 -12.11436,2.58637 -18.25202,2.03825 z m 7.53248,-4.66043 c 15.17388,-1.01248 28.85173,-12.48615 32.57797,-27.25784 3.60081,-13.1538 -1.40932,-27.98115 -11.9322,-36.53145 -11.56496,-9.9678002 -29.43526,-11.3640102 -42.40302,-3.31753 -8.2544,5.02219 -14.4011797,13.33271 -16.7263197,22.73773 -2.58625,11.00448 0.35577,23.14627 7.8426497,31.63768 7.45775,8.76752 19.15362,13.77511 30.64092,12.73141 z m -19.5019,-14.22616 c -4.34085,-3.22176 1.85864,-7.24714 4.54924,-8.98279 9.46222,-5.76068 23.07331,-3.77559 30.01268,5.02653 1.69932,5.59876 -3.43439,4.57262 -6.54636,1.79388 -7.87219,-4.43786 -18.08826,-3.64792 -25.37504,1.61217 -0.77667,0.46796 -1.72676,0.9338 -2.64052,0.55021 z m 2.52934,-21.39479 c -4.09787,-1.99641 -2.62236,-7.26747 -2.66413,-11.053 0.243,-5.47745 4.40819,-7.53548 7.21644,-4.04427 1.16611,3.71315 0.46036,6.6688 0.47358,11.68562 -0.38039,3.59327 -2.76716,4.18452 -5.02589,3.41165 z m 25.33199,-0.0985 c -3.60585,-1.87284 -2.19644,-6.51163 -2.42732,-9.79423 0.2237,-1.84822 -0.25774,-3.99467 1.01501,-5.43812 3.23615,-3.31958 7.31475,-0.6666 6.91592,4.70259 0.20425,5.55607 -0.0396,10.59829 -3.05,10.71402 -0.81055,0.17817 -1.68424,0.14648 -2.45361,-0.18426 z"
     style="fill:#000000" />
</svg>
