<?xml version="1.0" encoding="UTF-8" standalone="no"?>
<!-- Created with Inkscape (http://www.inkscape.org/) -->

<svg
   xmlns:dc="http://purl.org/dc/elements/1.1/"
   xmlns:cc="http://creativecommons.org/ns#"
   xmlns:rdf="http://www.w3.org/1999/02/22-rdf-syntax-ns#"
   xmlns:svg="http://www.w3.org/2000/svg"
   xmlns="http://www.w3.org/2000/svg"
   version="1.1"
   width="36"
   height="36.00005"
   id="svg2">
  <metadata
     id="metadata8">
    <rdf:RDF>
      <cc:Work
         rdf:about="">
        <dc:format>image/svg+xml</dc:format>
        <dc:type
           rdf:resource="http://purl.org/dc/dcmitype/StillImage" />
        <dc:title></dc:title>
      </cc:Work>
    </rdf:RDF>
  </metadata>
  <defs
     id="defs4" />
  <circle
     cx="18"
     cy="18"
     r="13"
     style="fill:#ffffff" />
  <path
     d="M 7.2636573,32.472084 C 4.467402,30.357634 2.152304,27.189984 1.050116,23.970374 0.33061573,21.690354 0.0082981,19.954074 1.0365068e-4,18.249224 -0.01587298,13.260804 1.8169604,9.3124835 4.2216939,6.3991835 7.9691353,2.0660635 12.509545,0.12637351 18.00041,9.8350977e-4 20.476184,-0.02691649 22.91405,0.53859351 25.524391,1.7212635 c 3.594686,1.66509 7.072941,5.12873 8.703385,8.6668305 2.403412,5.86736 2.352774,10.0407 -0.094,15.55137 -2.085496,3.53348 -5.374536,6.88326 -8.34309,8.2849 -6.166117,2.79457 -12.972731,2.349 -18.5270247,-1.75228 z M 25.42942,25.915574 c 0.274406,-0.18514 0.498109,-0.48062 0.601129,-0.79402 0.294163,-0.89487 0.09962,-1.19191 -2.506911,-3.82761 l -2.375216,-2.4018 0.205254,-0.39795 c 0.382437,-0.74148 0.621121,-2.08815 0.536713,-3.02814 -0.39371,-4.38446 -4.821788,-6.8988905 -8.772521,-4.98137 -0.990014,0.4805 -2.180592,1.70284 -2.687197,2.75886 -1.4226927,2.96563 -0.306561,6.57142 2.470902,7.98254 1.623362,0.82477 3.644144,0.95415 5.224759,0.33453 l 0.748994,-0.29362 2.337962,2.32751 c 1.285879,1.28013 2.453724,2.39064 2.595209,2.46781 0.431816,0.2355 1.15087,0.17041 1.620923,-0.14674 z m -10.775785,-5.94411 c -3.017705,-0.98943 -3.953169,-4.78361 -1.726731,-7.00349 0.915466,-0.76853 1.596244,-1.12078 2.444345,-1.21611 0.717242,-0.0806 1.596246,-0.003 2.405798,0.42778 2.487187,1.31328 3.045196,4.55301 1.147033,6.65954 -0.970457,1.07698 -2.888238,1.58547 -4.270445,1.13228 z"
     style="fill:#3396d9" />
  <path
     d="m 19.69376,28.039644 c -3.356915,-3.36624 -6.283378,-6.52991 -6.247794,-6.56559 0.06,0.0209 0.197765,0.0803 0.385438,0.13779 0.371135,0.10869 0.833506,0.22428 1.195587,0.27663 1.190025,0.16239 2.34187,-0.0109 3.128902,-0.33728 l 0.719146,-0.28411 2.504467,2.50175 c 1.280635,1.27925 2.282211,2.22294 2.436731,2.30143 0.845132,0.3811 1.980958,-0.0557 2.247962,-1.04988 0.100664,-0.3748 0.101061,-0.59623 -0.0634,-0.92812 -0.223633,-0.45129 -0.787042,-1.10152 -2.255509,-2.58063 l -2.591687,-2.619086 0.352771,-0.724214 c 0.295587,-0.76548 0.559449,-1.98761 0.26434,-3.52072 -0.111605,-0.52716 -0.288808,-0.91761 -0.269152,-0.93732 0.01966,-0.0197 3.090169,2.73279 6.475199,6.12722 l 6.153594,6.1082 -0.457472,0.81973 c -1.116687,2.00097 -2.686697,3.93134 -4.413122,5.3238 -0.821871,0.66289 -2.440781,1.63527 -3.112284,1.96689 -0.152299,0.0752 -0.28225,0.13735 -0.329459,0.15498 -2.297106,-2.25108 -4.255837,-4.31328 -6.124258,-6.17147 z"
     style="fill:#2879ae" />
</svg>
