<svg xmlns="http://www.w3.org/2000/svg"
   width="100%"
   height="100%"
   viewBox="0 0 16 20">
  <path fill="#000"
	d="M 2.0213189,17.21827 0.84465401,7.250451 15.862215,7.1219632 14.580766,17.594533 c -0.187523,1.306113 -0.239808,1.363875 -0.71631,1.942469 -0.489229,0.594048 -1.574501,0.41991 -2.10632,0.460194 l -7.0249566,-0.0067 C 3.8059958,20.003041 3.3015882,20.070734 2.7510443,19.53739 2.1726888,18.705266 2.108766,18.100494 2.0213189,17.21827 z M 5.6978866,16.403139 5.1688027,10.996056 C 5.0257213,9.8219112 4.8363614,9.6119858 4.3335614,9.6570797 3.8307628,9.7021896 3.322256,9.9691993 3.3797715,11.09828 l 0.5967404,5.479311 c 0.1044704,0.630324 0.7888926,0.744417 1.1276652,0.70235 0.3387712,-0.04203 0.648187,-0.221534 0.5937095,-0.876802 z m 3.5296276,0.058 -0.014912,-6.074918 C 9.2025862,9.9309014 8.878603,9.6007608 8.2800753,9.6026641 7.6815444,9.6048621 7.409678,9.9551648 7.3797772,10.389337 l 0.080745,6.107289 c -0.00704,0.550459 0.4681776,0.777178 0.9094621,0.775694 0.4412854,-0.0015 0.875551,-0.295912 0.8575299,-0.811183 z m 3.4667368,-0.006 0.545665,-5.407016 C 13.325296,9.922306 12.79738,9.6012843 12.251721,9.5665152 11.651867,9.5282992 11.495806,9.8539448 11.404578,11.029033 l -0.431084,5.403247 c -0.03864,0.391976 0.02718,0.775192 0.582213,0.831084 0.668917,0.06736 1.070425,-0.230809 1.138544,-0.808221 z M 1.7103972,4.5926411 c 4.2388396,-1.1085937 8.0405497,-1.85071 12.2805198,-2.8790643 0.38934,-0.071711 0.61365,-0.1962203 1.038397,0.003 0.457127,0.2145341 0.818282,1.0060842 0.970678,1.7086286 C 10.720504,4.7093114 4.8615409,6.1187767 0.13574375,7.2046276 -0.01859577,6.5210491 -0.09657028,5.9388916 0.20977795,5.4294803 0.51612621,4.920076 1.2410473,4.7338296 1.7103972,4.5925212 z M 4.3284845,3.3773955 C 4.2126243,2.6688939 4.1250138,2.2128646 4.5395818,1.4899235 4.9541497,0.76698219 6.0288153,0.48476852 6.9307645,0.2549106 7.8210139,0.02803524 8.8833966,-0.19366982 9.6794449,0.28113729 10.208842,0.59689866 10.512403,1.3330058 10.625339,1.9002132 L 9.5266582,2.1624193 C 9.3541287,1.6541252 9.3554048,1.5302351 9.0973468,1.3847724 8.5553048,1.0792331 7.8362754,1.3057201 7.2317218,1.4582714 6.6066311,1.6160049 5.8648936,1.7189189 5.5749098,2.2942303 5.4823006,2.4779617 5.3898287,2.5673496 5.5084519,3.0986814 z"/>
</svg>
