<svg xmlns="http://www.w3.org/2000/svg"
   width="100%"
   height="100%"
   viewBox="0 0 16 24">
  <path fill="#000"
	d="M 3.1228967,23.327921 C 2.6052428,22.765433 2.4851769,21.890421 2.4259822,21.130522 L 0.98190726,8.5109497 c 5.35034344,0.03787 10.04810074,-0.18231 14.89535974,0 L 14.330828,21.830243 c -0.169041,0.845775 -0.217807,1.082392 -0.540796,1.462064 -0.671503,0.688151 -1.18713,0.675687 -1.984087,0.685126 -2.3126995,0.01373 -4.5389433,0.03443 -6.8971133,0.01396 -0.7703486,-0.09119 -1.3002943,-0.228135 -1.785935,-0.663472 z M 14.768442,9.4984077 2.1316239,9.4891037 3.5016202,22.241651 c 0.1813775,0.938671 1.4710505,0.820911 5.3183044,0.887843 3.0721424,-0.07807 4.2389524,0.111671 4.4336534,-0.880039 z M 5.4424638,21.511259 C 5.0102764,18.865852 4.8870473,16.175361 4.650958,13.505914 4.683306,12.524547 4.1069313,10.568621 4.7232,10.495848 c 0.9016694,-0.106477 0.6648368,1.710594 0.7938374,2.601347 0.1983308,2.698471 0.5016294,5.393642 0.564101,8.099335 0.092222,0.37482 -0.4205011,0.696765 -0.6386742,0.314729 z m 2.6563128,-0.463417 c -0.1467368,-1.200555 -0.05708,-2.433038 -0.096978,-3.642938 0.022,-1.857601 -0.044832,-3.720774 0.039952,-5.576762 0.043688,-0.486511 -0.06752,-1.351643 0.4005496,-1.343874 0.5116599,0.0085 0.3886576,1.482751 0.3886576,1.482751 0,0 0.012152,7.318953 -0.051256,8.978831 -0.034688,0.633495 -0.020504,0.705697 -0.28082,0.7317 C 8.2511386,21.7023 8.1424698,21.402308 8.0987762,21.047842 z M 10.774846,20.87112 c -0.03307,-0.72048 0.114471,-1.471088 0.122889,-2.189859 0.194476,-2.335163 0.330062,-4.679311 0.581566,-7.008414 0.01456,-0.304853 0.02595,-1.191563 0.4467,-1.179196 0.436549,0.01282 0.499727,0.601898 0.390586,1.248593 -0.203946,3.079576 -0.420112,6.163209 -0.81028,9.225513 -0.02972,0.269363 -0.09742,0.720263 -0.364946,0.713873 -0.296829,-0.0067 -0.345515,-0.501405 -0.366515,-0.81051 z M 1.0041801,4.6832857 c 2.6298306,-0.96201 5.3808095,-1.546268 8.072478,-2.3085532 1.7375599,-0.4196026 3.4520229,-1.0230229 5.2416729,-1.1619754 1.118501,0.06975 1.654405,1.4340005 1.681668,2.3884956 L 0.32596274,7.7289097 C -0.40732779,5.7231987 0.21809061,4.9596457 1.0041801,4.6832857 z M 7.5033687,4.9678887 15.011404,2.9354402 C 14.75377,1.9575974 14.120366,1.9905074 13.113687,2.2835475 9.2238221,3.2301907 5.3464785,4.2427957 1.520993,5.4238287 0.84638186,5.5881457 0.60241146,6.1104767 0.84762926,6.7870967 z M 6.8228211,0.37236678 C 8.507887,0.06164928 9.4616985,-0.68661852 10.048842,1.5620548 l -0.7003495,0.17295 C 8.9954325,0.46100188 8.7924222,0.78759698 7.0236066,1.1519921 5.3385759,1.5310948 4.7346197,1.5328048 5.1322021,2.9704652 L 4.435669,3.1371077 C 3.8595309,0.88641698 4.8088851,0.94067198 6.8228211,0.37236678 z"/>
</svg>
